<svg width="43" height="43" viewBox="0 0 43 43" fill="none" xmlns="http://www.w3.org/2000/svg">
<path fill-rule="evenodd" clip-rule="evenodd" d="M29.0007 0.105752C28.734 0.173217 28.3538 0.310258 28.1558 0.410231C27.2733 0.855889 3.03018 14.8733 2.93589 14.9925C2.79556 15.1698 2.80181 15.4715 2.94831 15.593C3.03668 15.6664 7.23598 15.6954 19.6977 15.7089C35.6705 15.7262 36.3474 15.7332 36.7937 15.8841C38.3857 16.4229 39.5429 17.3917 40.2365 18.7666C40.6248 19.5363 40.7684 20.112 40.8246 21.1231C40.8795 22.1116 40.9871 22.3552 41.369 22.3552C41.7513 22.3552 42.4613 21.3783 42.8113 20.3709C43.075 19.6116 43.0606 18.3752 42.7788 17.5845C42.5462 16.9322 34.2172 2.43536 33.6423 1.68244C33.2111 1.11773 32.4262 0.552761 31.6719 0.264493C30.9488 -0.0119529 29.7478 -0.083302 29.0007 0.105752ZM35.3592 6.56551C36.0173 7.70329 36.5898 8.69711 36.6313 8.77404C36.695 8.89225 35.9343 9.36003 31.7211 11.7933L26.7354 14.6727L21.5128 14.651L16.2902 14.6292L25.169 9.5045C30.0524 6.68583 34.0736 4.40604 34.1052 4.43829C34.1367 4.47046 34.701 5.42772 35.3592 6.56551ZM3.6329 16.7831C2.01575 17.1084 0.711288 18.2809 0.158073 19.9065C0.00735029 20.3494 0 20.8125 0 29.9123V39.4537L0.214679 40.0038C0.75953 41.4002 1.76272 42.3643 3.16823 42.842C3.61583 42.9942 4.22954 43 19.8965 43H36.16L36.7317 42.8027C38.1078 42.3277 39.1482 41.2636 39.6349 39.8336C39.7856 39.3907 39.7929 38.9285 39.7929 29.8701C39.7929 20.8116 39.7856 20.3494 39.6349 19.9065C39.1581 18.5056 38.1951 17.4975 36.8257 16.9658L36.2445 16.7401L20.1077 16.7276C11.2324 16.7208 3.81877 16.7457 3.6329 16.7831ZM9.67365 21.4332C10.1424 21.6453 10.4776 21.9553 10.7164 22.3974C10.8863 22.7121 10.8987 22.8535 10.8987 24.4661C10.8987 25.9931 10.8801 26.2319 10.7412 26.4926C10.5208 26.9063 10.1958 27.237 9.80038 27.4503C9.4855 27.6201 9.34407 27.6325 7.73047 27.6325C6.11687 27.6325 5.97544 27.6201 5.66057 27.4503C5.2182 27.2117 4.90796 26.8766 4.69582 26.4082C4.54256 26.0698 4.52372 25.857 4.52372 24.4661C4.52372 23.0752 4.54256 22.8624 4.69582 22.5241C4.92689 22.0138 5.23737 21.6986 5.74505 21.4587C6.14205 21.2712 6.2616 21.2592 7.73047 21.2602C9.12086 21.2611 9.33545 21.2802 9.67365 21.4332ZM10.597 34.9153C11.0326 35.1373 11.2366 35.4671 11.2366 35.9495C11.2366 36.4319 11.0326 36.7617 10.597 36.9837C10.3413 37.1141 10.025 37.1314 7.89945 37.1314C5.77386 37.1314 5.45763 37.1141 5.20189 36.9837C4.76628 36.7617 4.56225 36.4319 4.56225 35.9495C4.56225 35.4671 4.76628 35.1373 5.20189 34.9153C5.45763 34.785 5.77386 34.7677 7.89945 34.7677C10.025 34.7677 10.3413 34.785 10.597 34.9153ZM22.763 34.9153C23.1986 35.1373 23.4026 35.4671 23.4026 35.9495C23.4026 36.4319 23.1986 36.7617 22.763 36.9837C22.5059 37.1148 22.1829 37.1314 19.8965 37.1314C17.61 37.1314 17.287 37.1148 17.0299 36.9837C16.5943 36.7617 16.3903 36.4319 16.3903 35.9495C16.3903 35.4671 16.5943 35.1373 17.0299 34.9153C17.287 34.7843 17.61 34.7677 19.8965 34.7677C22.1829 34.7677 22.5059 34.7843 22.763 34.9153ZM34.591 34.9153C35.0266 35.1373 35.2307 35.4671 35.2307 35.9495C35.2307 36.4319 35.0266 36.7617 34.591 36.9837C34.3353 37.1141 34.0191 37.1314 31.8935 37.1314C29.7679 37.1314 29.4517 37.1141 29.1959 36.9837C28.7603 36.7617 28.5563 36.4319 28.5563 35.9495C28.5563 35.4671 28.7603 35.1373 29.1959 34.9153C29.4517 34.785 29.7679 34.7677 31.8935 34.7677C34.0191 34.7677 34.3353 34.785 34.591 34.9153Z" fill="#DD2A1B"/>
</svg>
