<svg width="43" height="43" viewBox="0 0 43 43" fill="none" xmlns="http://www.w3.org/2000/svg">
<path fill-rule="evenodd" clip-rule="evenodd" d="M16.0099 0.0878132C13.506 0.35197 10.7012 1.31729 8.54691 2.65599C7.77281 3.13708 6.42557 4.13206 6.32258 4.29882C6.24297 4.42767 6.86912 5.06656 7.76063 5.76628C8.54727 6.38358 9.7678 7.19558 9.82422 7.13913C9.84383 7.11942 10.0974 6.62166 10.3875 6.03295C11.4353 3.90724 12.8443 2.16442 14.2969 1.19731C15.133 0.640678 15.6663 0.395697 16.5369 0.168458C17.2177 -0.00931903 17.1001 -0.0272401 16.0099 0.0878132ZM19.3463 0.172849C21.7659 0.806717 23.8891 2.84094 25.4624 6.03295C25.7526 6.62166 26.0065 7.11977 26.0265 7.13994C26.1516 7.26502 28.5332 5.49353 29.2535 4.73968L29.6117 4.36477L29.2087 4.00805C28.5927 3.46262 27.0584 2.46917 25.9974 1.92867C23.9366 0.878939 21.5822 0.216039 19.3131 0.0466844L18.6862 0L19.3463 0.172849ZM16.5369 1.63834C14.6744 2.22929 12.9063 4.06835 11.5933 6.78017C11.3226 7.33949 11.1151 7.81036 11.1323 7.82649C11.2153 7.90427 12.3179 8.32837 12.9712 8.53375C14.1832 8.91466 15.0459 9.0841 16.6936 9.26484L17.2085 9.32129V5.417C17.2085 1.0362 17.274 1.40447 16.5369 1.63834ZM18.6414 5.40311V9.3134L19.2459 9.25605C20.3195 9.15417 21.8049 8.87649 22.5836 8.63213C23.5483 8.32936 24.7311 7.87703 24.7311 7.81099C24.7311 7.78303 24.5135 7.3109 24.2476 6.76171C23.3585 4.92507 22.1567 3.35527 21.0165 2.54121C20.3714 2.08064 19.4617 1.63978 18.9772 1.55295L18.6414 1.49274V5.40311ZM4.79497 5.74621C2.98223 7.65597 1.5328 10.2055 0.738191 12.8817C0.475799 13.7654 0.16648 15.4506 0.0577622 16.5888L0 17.1937H3.93785H7.87562L7.93454 16.2752C8.10497 13.6163 8.52184 11.1781 9.15552 9.13303C9.3254 8.58482 9.32728 8.54091 9.18471 8.45713C7.92595 7.71735 6.48682 6.64397 5.56316 5.75589L5.15677 5.36512L4.79497 5.74621ZM30.4562 5.5989C29.8165 6.28743 27.9055 7.72828 26.6652 8.45713C26.5227 8.54091 26.5245 8.58482 26.6944 9.13303C27.3281 11.1781 27.745 13.6163 27.9154 16.2752L27.9743 17.1937H31.9121H35.8499L35.791 16.5888C35.4692 13.2869 34.5171 10.5288 32.8249 7.99647C32.2539 7.14191 31.3129 5.95974 30.8908 5.56682L30.6737 5.36476L30.4562 5.5989ZM10.5816 9.26206C10.5816 9.28589 10.4638 9.73957 10.32 10.2701C9.7986 12.1928 9.32782 15.2936 9.32782 16.8049V17.1937H13.2682H17.2085V13.9733V10.7531L16.8279 10.7073C16.6186 10.6821 16.0645 10.6153 15.5966 10.5588C14.1815 10.3881 12.3549 9.90892 11.1509 9.39252C10.7452 9.21851 10.5816 9.18106 10.5816 9.26206ZM24.6643 9.4005C23.5526 9.89476 21.6134 10.4047 20.2432 10.5631C19.7809 10.6165 19.2314 10.6811 19.022 10.7067L18.6414 10.7531V13.9733V17.1937H22.5933H26.5451L26.4825 16.1856C26.3557 14.143 26.0321 12.136 25.5287 10.2701C25.3855 9.73957 25.2684 9.28589 25.2684 9.26206C25.2684 9.18025 25.044 9.23168 24.6643 9.4005ZM0.0577622 19.2322C0.16648 20.3704 0.475799 22.0556 0.738191 22.9393C1.5328 25.6155 2.98223 28.165 4.79497 30.0748L5.15677 30.4559L5.56316 30.0651C6.48682 29.177 7.92595 28.1036 9.18471 27.3639C9.32728 27.2801 9.3254 27.2362 9.15552 26.688C8.52184 24.6429 8.10497 22.2047 7.93454 19.5458L7.87562 18.6273H3.93785H0L0.0577622 19.2322ZM9.32809 19.0082C9.32899 20.0391 9.56388 22.0168 9.87893 23.6452C10.0516 24.5377 10.5532 26.514 10.6253 26.5863C10.6438 26.6047 10.9941 26.4902 11.4039 26.3316C12.901 25.7522 14.6009 25.331 15.91 25.2151C16.2548 25.1847 16.6881 25.138 16.8727 25.1115L17.2085 25.0632V21.8452V18.6273H13.2682H9.32782L9.32809 19.0082ZM18.6414 21.8427V25.058L18.8429 25.1121C18.9538 25.1417 19.2257 25.1669 19.4474 25.168C19.8139 25.1697 20.6479 25.2767 21.2519 25.3994L21.4893 25.4477L21.5229 24.2553C21.559 22.9753 21.6375 22.7034 22.1218 22.1809C22.5633 21.7047 22.9736 21.5663 24.192 21.4821C25.2239 21.4108 26.2359 21.2733 26.3155 21.1936C26.3566 21.1525 26.5151 19.4175 26.5191 18.9634L26.5221 18.6273H22.5818H18.6414V21.8427ZM27.9472 18.9186C27.9429 19.0787 27.9124 19.5626 27.8795 19.9938C27.8351 20.5758 27.8472 20.7779 27.9268 20.7779C28.3369 20.7779 30.5898 19.7591 31.5774 19.1269C31.8466 18.9546 32.1996 18.7754 32.3617 18.7286C32.5678 18.6691 31.9489 18.6411 30.3058 18.6354L27.955 18.6273L27.9472 18.9186ZM33.6039 18.7498C33.78 18.8128 34.1628 19.0081 34.4546 19.1836C34.7463 19.3591 35.1563 19.5889 35.3656 19.6941L35.7462 19.8855V19.6721C35.7462 19.5548 35.7718 19.2717 35.8031 19.0431L35.8601 18.6273L34.5717 18.6313C33.4154 18.6348 33.3163 18.647 33.6039 18.7498ZM32.0745 20.4814C30.5768 21.4078 28.5737 22.2008 26.8356 22.5555C25.86 22.7545 24.4398 22.9284 23.7902 22.9284C23.4736 22.9284 23.3293 22.9788 23.1598 23.1484L22.94 23.3683L22.9405 27.5166C22.9411 32.0285 22.9925 32.715 23.4366 34.1294C24.2619 36.7578 26.0624 39.0416 28.7911 40.9212C30.0167 41.7655 32.4977 43 32.9687 43C33.2465 43 34.6769 42.3791 35.6808 41.8229C39.2001 39.8726 41.5677 37.1736 42.5476 33.9947C42.9447 32.7064 42.9989 31.9293 42.9995 27.5166L43 23.3683L42.7801 23.1484C42.6107 22.9788 42.4664 22.9284 42.1498 22.9284C41.9239 22.9284 41.3478 22.8856 40.8696 22.8332C38.3668 22.5595 35.9927 21.7676 33.921 20.5155C33.5074 20.2655 33.0739 20.0621 32.9575 20.0634C32.8413 20.0648 32.4439 20.2529 32.0745 20.4814ZM16.1654 26.6045C15.235 26.7025 14.1549 26.9297 13.1339 27.2422C12.3595 27.4791 11.2286 27.9042 11.1323 27.9945C11.1151 28.0106 11.3226 28.4815 11.5933 29.0408C12.4916 30.896 13.689 32.4627 14.8335 33.2798C15.4785 33.7404 16.3882 34.1812 16.8727 34.268L17.2085 34.3283V30.4204V26.5126L17.007 26.5248C16.8962 26.5314 16.5175 26.5673 16.1654 26.6045ZM18.6414 30.406C18.6414 33.6129 18.6628 34.3083 18.7617 34.3083C19.2401 34.3083 20.7252 33.5844 21.2964 33.0728L21.6677 32.7402L21.595 32.2026C21.5549 31.9069 21.5189 30.5863 21.5146 29.268C21.5098 27.7355 21.4749 26.871 21.4176 26.871C21.3684 26.871 20.9754 26.8135 20.5444 26.7433C20.1135 26.673 19.509 26.5904 19.2011 26.5597L18.6414 26.5037V30.406ZM38.5191 28.1734C38.593 28.2474 38.6526 28.4674 38.6526 28.6662C38.6526 29.0192 38.5951 29.0828 35.2758 32.404C31.9491 35.7327 31.8937 35.7827 31.5378 35.7827C31.1866 35.7827 31.122 35.7283 29.258 33.8647C28.1779 32.7849 27.3152 31.8498 27.2839 31.7249C27.1579 31.2225 27.6652 30.7154 28.1499 30.8591C28.2643 30.8931 29.0734 31.6323 29.9477 32.5018L31.5376 34.0828L34.5597 31.0691C36.222 29.4116 37.6425 28.0326 37.7163 28.0046C37.9188 27.928 38.3683 28.0226 38.5191 28.1734ZM8.9611 29.1839C7.51499 30.1552 6.19873 31.3216 6.32258 31.5222C6.35589 31.576 6.70435 31.8647 7.09695 32.1638C9.71263 34.1561 12.8824 35.4063 16.1704 35.7425C17.0845 35.8359 17.4288 35.8084 16.7444 35.6966C16.0871 35.5893 15.1027 35.1602 14.3231 34.6412C12.8424 33.6553 11.4408 31.9262 10.3857 29.7832C10.0945 29.1918 9.82807 28.6987 9.7935 28.6875C9.75902 28.6762 9.38442 28.8997 8.9611 29.1839ZM21.5071 34.6793C20.934 35.075 20.2302 35.39 19.4026 35.6214L18.6862 35.8216L19.2235 35.7757C20.0767 35.7026 21.0537 35.5603 21.7149 35.4129C22.2211 35.3 22.3153 35.2514 22.2649 35.1285C22.2314 35.047 22.1663 34.8493 22.1201 34.6891C22.0738 34.5289 22.0077 34.3986 21.9731 34.3995C21.9384 34.4004 21.7288 34.5264 21.5071 34.6793Z" fill="#DD2A1B"/>
</svg>
