<svg width="43" height="43" viewBox="0 0 43 43" fill="none" xmlns="http://www.w3.org/2000/svg">
<path fill-rule="evenodd" clip-rule="evenodd" d="M15.8962 0.157832C14.8905 0.418099 14.1453 0.854958 13.3236 1.66609C12.516 2.46327 12.075 3.21475 11.8433 4.18878C11.4896 5.67569 11.8025 6.83135 13.4609 10.1636C14.4306 12.112 17.0903 17.1274 17.1522 17.1242C17.2171 17.1209 20.3713 11.1385 21.0268 9.77553C22.5173 6.67652 22.7677 5.72786 22.4685 4.31479C22.053 2.35305 20.3909 0.662656 18.3772 0.153883C17.5599 -0.0526162 16.7039 -0.0512721 15.8962 0.157832ZM18.0525 3.57348C18.3376 3.66925 18.623 3.86391 18.9456 4.18256C19.4911 4.72149 19.7046 5.21951 19.7046 5.95301C19.7046 6.6866 19.4911 7.18445 18.9447 7.72481C18.3395 8.32339 17.826 8.51141 16.9511 8.45496C15.9642 8.39127 15.2202 7.89082 14.8059 7.01172C14.5228 6.41104 14.5221 5.49414 14.8045 4.90287C15.1144 4.25355 15.7363 3.70689 16.3876 3.51114C16.7672 3.39705 17.6227 3.42906 18.0525 3.57348ZM2.78885 5.07829C1.74601 5.35527 0.77418 6.17733 0.288606 7.19319L0.0180105 7.75926L0.0033837 23.1333C-0.00852181 35.7352 0.00831596 38.4282 0.097097 38.0682C0.399667 36.8411 1.47108 35.5145 2.61171 34.9544C4.06512 34.2407 5.88879 34.3029 7.22611 35.1117L7.63099 35.3566L7.60879 21.5579L7.58651 7.75926L7.31311 7.18899C6.99073 6.51665 6.27452 5.73845 5.68792 5.42299C4.83175 4.96269 3.7213 4.83062 2.78885 5.07829ZM38.1602 5.07955C37.139 5.35065 36.2068 6.12658 35.7105 7.1185L35.3944 7.75052L35.3721 21.5554L35.3499 35.3603L35.6697 35.1647C37.0941 34.2936 38.8413 34.2139 40.3692 34.9501C41.4972 35.4937 42.5816 36.8387 42.8832 38.0682C42.9715 38.4281 42.9922 35.7656 42.9982 23.3298C43.0051 8.68876 42.9997 8.13428 42.8452 7.64374C42.7571 7.36407 42.5885 6.97266 42.4707 6.77397C42.2005 6.31846 41.4432 5.60622 40.982 5.37384C40.1509 4.95488 39.0587 4.84104 38.1602 5.07955ZM8.6495 17.8826V23.2593H12.6504H16.6514L22.1961 18.0386C25.2457 15.1672 27.8167 12.7473 27.9095 12.661C28.0743 12.5077 27.9939 12.5045 24.3904 12.526L20.7028 12.5479L19.5021 14.7869C18.8418 16.0184 18.0539 17.5211 17.7513 18.1263C17.4488 18.7316 17.1809 19.2259 17.1561 19.2248C17.1312 19.2237 16.7723 18.5716 16.3585 17.7756C15.9446 16.9797 15.1473 15.4683 14.5866 14.4172L13.5672 12.5059H11.1083H8.6495V17.8826ZM25.8636 18.7827C22.3124 22.235 19.3979 25.0988 19.3867 25.1466C19.3756 25.1945 19.8567 26.708 20.4558 28.51L21.545 31.7865L27.9382 31.808L34.3314 31.8296V22.1677V12.5059H33.3258H32.3202L25.8636 18.7827ZM8.64729 32.6048L8.64516 38.6754L8.43155 38.0559C8.31411 37.7152 8.10874 37.2796 7.97523 37.0878C6.81095 35.4161 4.4995 34.9018 2.78179 35.9323C2.26798 36.2405 1.59336 36.9703 1.32575 37.5073C0.216152 39.734 1.57066 42.4538 4.01826 42.9138C4.38078 42.9819 6.98452 43.0021 13.1637 42.9845L21.8023 42.96L19.0721 34.7689L16.3418 26.5778L12.4957 26.5559L8.6495 26.5341L8.64729 32.6048ZM22.6799 35.0839C22.6792 35.1186 23.2628 36.9134 23.9767 39.0724L25.2747 42.9977L31.9537 42.9999C37.6046 43.0017 38.7076 42.9827 39.1197 42.8766C40.6553 42.4815 41.7415 41.3155 42.0085 39.7755C42.2058 38.6371 41.7902 37.3741 40.9472 36.5508C40.2304 35.8507 39.5547 35.5246 38.5833 35.4098C37.2748 35.2551 35.8004 35.9467 35.0057 37.0878C34.8721 37.2796 34.6668 37.7152 34.5493 38.0559L34.3357 38.6754L34.3336 36.8482L34.3314 35.0209H28.5062C25.3023 35.0209 22.6805 35.0492 22.6799 35.0839Z" fill="#DD2A1B"/>
</svg>
