<svg width="43" height="43" viewBox="0 0 43 43" fill="none" xmlns="http://www.w3.org/2000/svg">
<path fill-rule="evenodd" clip-rule="evenodd" d="M4.91693 0.174223C4.81103 0.269996 3.7472 1.7036 2.55298 3.36001L0.381526 6.37158H6.41913H12.4567L13.2251 3.18579L13.9934 0H9.55151C5.4585 0 5.09444 0.0136392 4.91693 0.174223ZM14.8086 3.18579L14.0403 6.37158H17.665H21.2898L20.5215 3.18579L19.7532 0H17.665H15.5769L14.8086 3.18579ZM22.105 3.18579L22.8733 6.37158H28.9109H34.9486L32.7771 3.36001C31.5829 1.7037 30.519 0.269996 30.4131 0.174223C30.2356 0.0136392 29.8716 0 25.7786 0H21.3367L22.105 3.18579ZM0 23.649V39.3336L0.235694 39.578L0.471292 39.8224H13.3004C20.3565 39.8224 26.1131 39.7888 26.0928 39.7477C25.4725 38.4861 25.0945 37.5456 24.8937 36.7637C24.6755 35.9141 24.6437 35.5941 24.6437 34.2472C24.6437 32.8934 24.675 32.5821 24.8987 31.7086C25.3481 29.954 26.1357 28.48 27.3136 27.1894C29.1502 25.1772 31.4887 24.0684 34.202 23.9233L35.3301 23.8631V15.9137V7.96447H29.1857H23.0414V12.4987V17.0331L22.8057 17.2774C22.3981 17.7001 22.0614 17.6141 21.35 16.9058L20.7313 16.2897L20.1573 16.8786C19.6501 17.3993 19.5392 17.4676 19.2011 17.4676C18.8629 17.4676 18.7522 17.3993 18.2419 16.8756L17.665 16.2837L17.0881 16.8756C16.5779 17.3993 16.4672 17.4676 16.1289 17.4676C15.7907 17.4676 15.68 17.3993 15.1698 16.8756L14.5929 16.2837L14.0349 16.8562C13.3414 17.5677 12.9214 17.6891 12.5357 17.2893L12.2887 17.0331V12.4987V7.96447H6.14436H0V23.649ZM13.8248 11.3648V14.7651L14.0245 14.5778C14.1484 14.4615 14.3668 14.3903 14.5997 14.3903C14.9296 14.3903 15.0452 14.4623 15.5521 14.9823L16.1289 15.5742L16.7058 14.9823C17.2161 14.4586 17.3268 14.3903 17.665 14.3903C18.0033 14.3903 18.114 14.4586 18.6242 14.9823L19.2011 15.5742L19.778 14.9823C20.2848 14.4623 20.4004 14.3903 20.7304 14.3903C20.9633 14.3903 21.1817 14.4615 21.3056 14.5778L21.5053 14.7651V11.3648V7.96447H17.665H13.8248V11.3648ZM33.0004 25.644C30.8312 26.0506 28.8114 27.4351 27.5623 29.3716C25.2902 32.894 25.7399 37.4989 28.6462 40.4718C31.5144 43.4058 35.9078 43.8337 39.2638 41.5059C43.08 38.8589 44.1495 33.4724 41.6479 29.4986C39.7671 26.5108 36.3947 25.0077 33.0004 25.644ZM6.7444 28.1595C7.53654 28.9886 7.68045 29.1881 7.68045 29.4577C7.68045 30.1346 6.92834 30.4918 6.40396 30.0641L6.15761 29.8631L6.12698 31.4546C6.09194 33.2748 6.0449 33.3965 5.37632 33.3965C4.7086 33.3965 4.66069 33.2733 4.62584 31.4683L4.59541 29.8907L4.23308 30.0965C3.9154 30.2768 3.83437 30.2866 3.57573 30.1755C3.23597 30.0296 3.02207 29.5916 3.1246 29.2519C3.20572 28.9832 4.75622 27.2988 5.0403 27.1708C5.47386 26.9755 5.78636 27.1567 6.7444 28.1595ZM12.8625 28.1247C13.7089 29.0012 13.7725 29.0949 13.7725 29.4657C13.7725 29.7117 13.7085 29.9305 13.6053 30.0374C13.3808 30.2703 12.7469 30.2659 12.4951 30.0296C12.3027 29.8491 12.3021 29.8531 12.2714 31.4472C12.2363 33.2756 12.1897 33.3965 11.5207 33.3965C10.853 33.3965 10.8051 33.2733 10.7702 31.4683L10.7398 29.8907L10.3774 30.0965C10.0598 30.2768 9.97873 30.2866 9.72009 30.1755C9.38033 30.0296 9.16643 29.5916 9.26896 29.2519C9.35009 28.9832 10.9006 27.2988 11.1847 27.1708C11.6109 26.9788 11.9326 27.1616 12.8625 28.1247ZM38.8571 30.4172C38.9723 30.5009 39.0948 30.7252 39.1293 30.9158C39.1797 31.1945 39.1452 31.3252 38.9523 31.5849C38.3289 32.4245 33.5731 37.9957 33.3843 38.1076C32.9464 38.3671 32.6501 38.1838 31.3737 36.864C30.7026 36.17 30.1033 35.4765 30.042 35.3229C29.8161 34.7573 30.3701 34.1202 30.9307 34.3012C31.0534 34.3408 31.5698 34.796 32.0783 35.3126L33.0027 36.252L35.3304 33.4824C36.6105 31.9592 37.7631 30.6122 37.8914 30.489C38.1622 30.2292 38.5578 30.1998 38.8571 30.4172ZM13.6032 35.269C13.8287 35.5028 13.8287 36.1774 13.6032 36.4113C13.4467 36.5737 13.0691 36.5887 8.56514 36.6117C4.79462 36.6309 3.64284 36.6082 3.45947 36.5108C2.9708 36.2514 2.98386 35.3549 3.47944 35.1452C3.60396 35.0926 5.76763 35.062 8.56514 35.0735C13.0728 35.092 13.4466 35.1065 13.6032 35.269Z" fill="#DD2A1B"/>
</svg>
