<svg width="1440" height="426" viewBox="0 0 1440 426" fill="none" xmlns="http://www.w3.org/2000/svg">
<path d="M684.52 -1H667.76L607.72 21.8798L547.64 -1H530.88L607.72 28.2819L684.52 -1ZM1440 41.33V34.9431L1375.4 10.3103L1405.08 -1H1388.32L1367 7.12455L1345.68 -1H1328.92L1358.6 10.3103L1290.12 36.4065L1191.96 -1H1120.6L1072.16 17.4593L1023.68 -1H1006.92L1063.76 20.6604L1023.48 36.0101L926.36 -1H909.6L1392.48 183.014L1212.96 251.41L1158.88 230.801C1210.56 201.778 1202.76 161.857 1135.32 136.172L775.36 -1H719.44L749.48 10.4475L620.96 59.4235L462.4 -1H394.72L376.24 6.04229L357.76 -1H301.84L455.44 57.5333L387.12 83.5532L165.24 -1H148.48L310.96 60.9173L138.4 126.691L92.96 109.375L204.4 66.9078L52.08 8.84701L77.88 -1H22L0 7.38368V28.6935L43.68 12.0328L187.64 66.8926L84.56 106.174L0 73.9501V80.3369L76.2 109.375L0 138.413V144.8L84.56 112.576L197.76 155.714L179.12 162.817C137.96 178.502 70.96 178.502 29.8 162.817L0 151.431V172.74L1.92 173.472C30.68 184.432 68.56 189.797 106.32 189.63L255.72 246.562L127.28 295.508L42.64 263.254V226.838L0 210.574V216.976L30.76 228.698V265.113L127.28 301.895L264.12 249.748L302.8 264.488L111.72 337.304L0 294.731V301.117L103.32 340.49L61.56 356.404L0 332.96V339.347L53.16 359.605L0 379.878V386.265L61.56 362.806L112.8 382.332L0 425.333V438H22.64L164.6 383.902L306.6 438H308.72L396.56 404.526L464.84 430.546L445.24 438.015H462L481.6 430.546L261.92 346.831L343.24 315.842L401.48 338.036L366.08 351.526L545.44 419.876L580.84 406.386L631.08 425.531L598.32 438.015H615.08L639.48 428.717L663.88 438.015H719.8L546.88 372.12L656.28 330.43L788.36 380.762L723.72 405.395L809.24 438H826L740.44 405.395L805.08 380.762L664.6 327.229L1121.6 153.077C1167.8 176.383 1163.08 209.796 1107.36 231.03L955.8 288.786C909.96 306.254 909.96 334.698 955.8 352.166L1024.88 378.491L868.76 438H885.52L1033.28 381.692L1117.16 413.657L1053.24 438H1070L1125.52 416.843L1181.04 438H1246.68L1293.2 420.272L1339.76 438H1356.52L1301.6 417.071L1396.24 381.006L1440 397.682V391.295L1404.64 377.82L1440 364.346V343.036L1376.68 367.166L1296.72 336.695L1438.84 282.536L1376.64 258.833L1440 234.688V228.301L1368.24 255.647L1293.44 227.143L1409.24 183.014L1329.6 152.65L1388.4 130.243L1440 149.906V143.519L1396.76 127.042L1434.4 112.698L1439.96 114.817V93.5222L1298.48 39.6075L1366.96 13.5114L1440 41.33ZM942.4 83.9495L856.48 116.692L723.68 66.0847L809.6 33.3426L942.4 83.9495ZM757.88 13.6486L801.2 30.1568L706.92 66.0847L848.08 119.877L813.84 132.925L629.36 62.6093L757.88 13.6486ZM797.08 139.328L724.56 166.963L658.04 141.614C650.88 121.219 626.8 101.525 585.76 85.8854L577.04 82.5624L612.6 69.0114L797.08 139.328ZM618.92 165.591L489.04 116.097L549.08 93.2173L557.8 96.5403C607.16 115.35 627.48 141.065 618.92 165.591ZM404.2 16.6972L439.76 3.14611L604.24 65.8256L568.68 79.3766L404.2 16.6972ZM483.4 68.1882L540.72 90.0315L472.28 116.112L616.52 171.079C608.4 186.368 588.84 200.94 557.8 212.769L461.04 249.642L362.72 212.174L474.16 169.707L345.6 120.701L483.4 68.1882ZM452.64 252.827L418.72 265.753L320.4 228.286L354.32 215.36L452.64 252.827ZM299.84 188.197L402.92 148.915L457.44 169.692L354.36 208.973L299.84 188.197ZM146.76 129.877L319.32 64.1183L378.72 86.7543L206.16 152.513L146.76 129.877ZM122.04 189.218C153.16 187.785 183.28 182.542 207.12 173.472L337.2 123.886L394.52 145.73L283.08 188.197L345.96 212.159L264.12 243.346L122.04 189.218ZM121.2 379.147L69.96 359.62L111.72 343.706L162.96 363.233L121.2 379.147ZM388.2 401.325L340 419.693L264.04 390.747L312.24 372.379L388.2 401.325ZM303.88 369.193L247.28 390.747L331.6 422.879L307.64 432.009L173 380.701L253.52 350.017L303.88 369.193ZM171.36 360.032L120.12 340.505L311.2 267.689L362.44 287.216L171.36 360.032ZM272.52 246.562L312.08 231.487L410.4 268.955L370.84 284.03L272.52 246.562ZM572.48 403.17L545.44 413.474L382.84 351.511L409.88 341.207L572.48 403.17ZM518.92 361.449L371.2 305.172L480.6 263.482L628.28 319.76L518.92 361.449ZM636.68 316.574L489 260.296L585.76 223.424C589.36 222.052 592.8 220.634 596.16 219.186L744.2 275.6L636.68 316.574ZM760.96 269.214L611.16 212.128C647.2 193.41 663.36 170.865 659.84 148.687L868.52 228.21L760.96 269.214ZM876.92 225.024L741.32 173.35L813.84 145.714L949.4 197.388L876.92 225.024ZM966.2 190.986L830.6 139.328L864.84 126.28L1000.4 177.953L966.2 190.986ZM1008.84 174.752L873.24 123.094L959.16 90.3516L1094.76 142.026L1008.84 174.752ZM1135.32 241.685C1141.32 239.398 1146.76 236.99 1151.84 234.505L1204.6 254.611L1073.8 304.456L1022.2 284.792L1135.32 241.685ZM983.76 299.441L1013.8 287.993L1065.4 307.657L980.32 340.079C953.48 328.402 954.56 310.583 983.76 299.441ZM1125.52 395.548L988.56 343.356L1073.84 310.858L1210.8 363.05L1125.52 395.548ZM1213.84 429.205L1133.88 398.734L1219.16 366.236L1299.12 396.707L1213.84 429.205ZM1368.28 370.351L1307.48 393.521L1227.52 363.05L1288.32 339.88L1368.28 370.351ZM1219.16 359.849L1082.2 307.657L1213 257.812L1349.96 310.004L1219.16 359.849ZM1422.08 282.536L1358.36 306.818L1221.4 254.626L1285.12 230.344L1422.08 282.536ZM1136.72 -0.740868L1262.2 47.0766L1206 68.4779L1080.52 20.6604L1136.72 -0.740868ZM1031.88 39.1959L1072.16 23.8462L1197.64 71.6636L1157.36 87.0134L1031.88 39.1959ZM1426.04 109.512L1321.2 149.464L1165.72 90.2144L1270.56 50.2624L1426.04 109.512Z" fill="white" fill-opacity="0.03"/>
</svg>
