<svg width="143" height="57" viewBox="0 0 143 57" fill="none" xmlns="http://www.w3.org/2000/svg">
<path fill-rule="evenodd" clip-rule="evenodd" d="M2.88622 25.2904L83.6676 25.8405C84.7014 26.0373 85.7659 26.3278 86.548 26.962L87.3167 27.7665C87.369 27.8268 87.4502 27.9253 87.5077 28.0107L-0.107422 27.7305C1.76789 22.4636 3.33549 17.1027 5.28198 11.948C5.83539 10.4825 6.57876 9.44566 7.90015 8.91527C8.96248 8.48894 11.1544 8.22336 12.3104 8.06865C22.5633 6.69668 32.7104 6.37114 42.4235 5.22922C44.1301 5.0289 44.5647 4.24226 46.0088 3.38632C47.4879 2.50972 48.6309 2.80554 50.4484 2.65032C55.4364 2.22424 79.5117 0.066133 81.3509 0.470038C84.8817 1.24585 80.5266 2.60799 90.3357 1.86116L121.593 0.133409C124.964 -0.0381816 128.058 -0.253614 130.962 1.17631C132.768 2.0655 135.514 4.5164 135.807 6.93832C129.902 1.90601 126.74 3.26664 119.948 3.41731C113.778 3.55413 107.564 4.1193 101.316 4.33397C89.0549 4.75577 76.4267 5.64597 63.9803 6.39306C59.1873 6.68081 11.6819 9.4958 9.20504 10.6181C6.60127 11.7975 2.88779 22.6866 2.88622 25.2904Z" fill="#393185"/>
<path fill-rule="evenodd" clip-rule="evenodd" d="M10.6975 14.8932C11.6479 15.3319 13.4876 15.1915 14.5337 15.1842C22.5876 15.1298 33.7139 14.4314 41.4569 14.2169C51.4861 13.939 62.5629 14.001 72.7101 13.4666L72.8595 9.425L16.5605 12.9258C14.1755 13.1017 10.4335 12.88 10.6975 14.8932ZM74.0006 21.1735L6.25244 21.7982C6.61065 19.795 7.96631 16.0006 8.91195 14.4392C10.4374 11.9197 12.8036 11.8852 16.4467 11.7073L74.2227 8.14525L74.0006 21.1735Z" fill="#C5C6C6"/>
<path fill-rule="evenodd" clip-rule="evenodd" d="M119.166 51.7378L117.614 51.7708C117.036 52.6018 116.617 53.3124 115.741 53.9126C115.013 54.4112 114.35 54.6206 113.32 55.3684C117.898 54.5422 118.393 52.4716 119.166 51.7378ZM110.041 49.9874C109.38 49.4253 108.524 49.3454 107.286 48.0031C106.358 46.996 106.009 45.9176 106.191 44.5252C106.57 41.6344 108.556 41.2519 110.842 40.3375C106.397 38.0358 103.347 41.2239 103.023 44.1967C102.605 48.022 105.178 50.6813 110.041 49.9874ZM142.723 46.0988C141.343 49.1315 140.33 51.2752 135.233 51.702C131.328 52.0291 126.02 51.7325 121.985 51.6988C120.78 53.5565 120.722 53.7984 118.737 54.9121C114.304 57.4001 107.766 57.7309 103.212 55.5224C100.669 54.2887 98.3849 51.9825 97.428 48.4962C96.1063 43.6819 97.6577 42.0408 98.8603 38.5012L100.594 36.7648C105.712 32.1105 113.596 32.719 117.692 39.3387C119.227 41.8196 119.292 44.2647 119.07 47.2278C123.455 47.2278 127.84 47.2278 132.226 47.2278C142.802 47.2281 138.656 46.6123 142.872 44.1956L142.723 46.0988Z" fill="#393185"/>
<path fill-rule="evenodd" clip-rule="evenodd" d="M121.597 6.38147L105.872 7.29561L106.132 11.857L126.986 10.8829C126.675 7.40471 125.457 6.4427 121.597 6.38147ZM104.962 24.5839C104.104 23.5939 104.229 7.38481 104.384 6.19602C108.337 5.84956 112.686 5.63161 116.598 5.41618C119.84 5.23753 125.65 4.4398 127.041 7.06178C129.272 9.97076 129.96 16.8777 130.742 21.334C131.315 24.6031 134.338 34.2232 130.431 35.3891C125.5 36.8601 118.484 33.935 115.596 32.0145C114.476 31.2694 105.022 24.6991 104.962 24.5839Z" fill="#C5C6C6"/>
<path fill-rule="evenodd" clip-rule="evenodd" d="M77.2245 8.94751L77.2196 13.459C77.2196 13.6286 78.1697 13.4938 78.3669 13.5641C82.4036 13.555 83.9222 13.4391 87.6692 13.2252L101.105 12.6021L101.193 7.71337L77.2245 8.94751ZM102.088 23.219C100.607 23.6315 98.1212 22.3989 96.389 22.0335C88.8297 20.439 83.4594 21.4036 76.3757 21.0914L76.2192 7.97718L102.392 6.37265L102.088 23.219Z" fill="#C5C6C6"/>
<path fill-rule="evenodd" clip-rule="evenodd" d="M141.683 36.3244C139.335 37.3582 135.619 37.0745 134.799 33.0596L129.722 5.63589C136.72 6.9547 137.437 11.4997 138.684 18.4949C139.212 21.4555 141.92 34.2494 141.683 36.3244Z" fill="#C5C6C6"/>
<path fill-rule="evenodd" clip-rule="evenodd" d="M110.842 40.3375C108.556 41.2519 106.57 41.6344 106.191 44.5252C106.009 45.9176 106.358 46.996 107.286 48.0031C108.524 49.3454 109.38 49.4253 110.041 49.9874C105.178 50.6813 102.605 48.022 103.023 44.1967C103.347 41.2239 106.397 38.0358 110.842 40.3375Z" fill="#FCFCFE"/>
<path fill-rule="evenodd" clip-rule="evenodd" d="M141.887 42.4298L141.773 43.3546C139.867 43.6688 137.354 44.9939 136.474 42.543C135.797 40.6583 136.804 40.7757 136.879 40.7265C137.563 41.941 140.207 42.6833 141.887 42.4298Z" fill="#E31E24"/>
<path fill-rule="evenodd" clip-rule="evenodd" d="M119.166 51.7378C118.393 52.4715 117.898 54.5422 113.32 55.3684C114.349 54.6206 115.013 54.4112 115.741 53.9126C116.617 53.3124 117.036 52.6018 117.614 51.7708L119.166 51.7378Z" fill="#FAF9FA"/>
<path d="M4.52735 38.9721C6.00703 38.9721 7.28131 39.767 8.34967 41.3567C9.41776 42.9459 9.95155 44.8457 9.95155 47.0552C9.95155 49.2421 9.41776 51.1306 8.34967 52.7195C7.28131 54.3094 6.00703 55.1041 4.52735 55.1041H1.45703V31.1603H9.07813V32.5812H2.39874V38.9721H4.52735ZM4.52735 53.6835C5.73805 53.6835 6.78782 53.0244 7.67694 51.7051C8.56606 50.386 9.01088 48.8359 9.01088 47.0552C9.01088 45.2514 8.56606 43.6902 7.67694 42.3711C6.78782 41.0521 5.73805 40.3929 4.52735 40.3929H2.39874V53.6835H4.52735ZM12.6417 55.1041V31.1603H13.5834V51.6882L20.9119 31.1603H21.7189V55.1041H20.778V34.5082L13.4489 55.1041H12.6417ZM23.9603 55.1041L28.6 31.1603H29.5642L34.204 55.1041H33.217L29.0935 33.7644L24.947 55.1041H23.9603ZM36.4674 55.1041V31.1603H43.9537V32.5812H37.4088V38.9721H40.7709V40.3929H37.4088V53.6835H43.9537V55.1041H36.4674ZM48.8844 55.1041V32.5469H45.0744V31.1603H53.6361V32.5469H49.8259V55.1041H48.8844ZM70.2895 52.9561C69.229 54.5458 67.9513 55.3407 66.4567 55.3407C64.9631 55.3407 63.6852 54.5458 62.6239 52.9561C61.5634 51.3669 61.0325 49.4338 61.0325 47.1568V43.5383H56.819V55.1041H55.8773V31.1603H56.819V42.1177H61.0325V39.1079C61.0325 36.8309 61.5634 34.8975 62.6239 33.3078C63.6852 31.7187 64.9631 30.9237 66.4567 30.9237C67.9513 30.9237 69.229 31.7187 70.2895 33.3078C71.3508 34.8975 71.8809 36.8309 71.8809 39.1079V47.1568C71.8809 49.4338 71.3508 51.3669 70.2895 52.9561ZM63.2966 51.9417C64.1779 53.261 65.2313 53.9201 66.4567 53.9201C67.6823 53.9201 68.7355 53.261 69.6178 51.9417C70.4991 50.6226 70.9402 49.0281 70.9402 47.1568V39.1079C70.9402 37.2365 70.4991 35.6413 69.6178 34.3223C68.7355 33.0037 67.6823 32.3438 66.4567 32.3438C65.2313 32.3438 64.1779 33.0037 63.2966 34.3223C62.4151 35.6413 61.9742 37.2365 61.9742 39.1079V47.1568C61.9742 49.0281 62.4151 50.6226 63.2966 51.9417ZM74.7947 55.1041V31.1603H82.4158V32.5812H75.7364V55.1041H74.7947Z" fill="#E31E24" stroke="#E31E24" stroke-width="0.288" stroke-miterlimit="22.9256"/>
<path fill-rule="evenodd" clip-rule="evenodd" d="M81.1841 30.1439H84.3923V33.646H81.1841V30.1439Z" fill="#FEFEFE" stroke="#FEFEFE" stroke-width="0.288" stroke-miterlimit="22.9256"/>
<path d="M80.4434 44.2916V43.2581H80.973V44.2916H80.4434ZM82.8624 44.2916V31.2306H84.5883C85.4201 31.2306 86.1358 31.6642 86.7368 32.5313C87.3373 33.3985 87.6374 34.4346 87.6374 35.6398C87.6374 36.8329 87.3373 37.8622 86.7368 38.7294C86.1358 39.5965 85.4201 40.0301 84.5883 40.0301H83.3917V44.2916H82.8624ZM83.3917 39.255H84.5883C85.2686 39.255 85.8589 38.8957 86.3587 38.1759C86.8587 37.4567 87.1086 36.6114 87.1086 35.6398C87.1086 34.6556 86.8587 33.804 86.3587 33.0848C85.8589 32.3657 85.2686 32.0057 84.5883 32.0057H83.3917V39.255ZM92.2112 31.1202C92.992 31.2183 93.6512 31.6922 94.1886 32.5408C94.7266 33.389 94.9948 34.3978 94.9948 35.5655V39.9565C94.9948 41.1249 94.7266 42.1333 94.1886 42.9819C93.6512 43.83 92.992 44.3037 92.2112 44.402V45.3429H91.6819V44.402C90.9009 44.3037 90.2412 43.83 89.7038 42.9819C89.1658 42.1333 88.8976 41.1249 88.8976 39.9565V35.5655C88.8976 34.3978 89.1658 33.389 89.7038 32.5408C90.2412 31.6922 90.9009 31.2183 91.6819 31.1202V30.1794H92.2112V31.1202ZM89.4269 39.9565C89.4269 40.9034 89.6452 41.7269 90.0819 42.4283C90.5186 43.1293 91.0518 43.5287 91.6819 43.6275V31.8953C91.0518 31.9933 90.5186 32.3929 90.0819 33.0937C89.6452 33.7951 89.4269 34.6186 89.4269 35.5655V39.9565ZM94.466 39.9565V35.5655C94.466 34.6186 94.2472 33.7951 93.8105 33.0937C93.3738 32.3929 92.8405 31.9933 92.2112 31.8953V43.6275C92.8405 43.5287 93.3738 43.1293 93.8105 42.4283C94.2472 41.7269 94.466 40.9034 94.466 39.9565Z" fill="#E31E24" stroke="#E31E24" stroke-width="0.288" stroke-miterlimit="22.9256"/>
</svg>
